<?xml version="1.0" encoding="utf-8"?>
<!-- Generator: Adobe Illustrator 26.2.1, SVG Export Plug-In . SVG Version: 6.00 Build 0)  -->
<svg version="1.1" id="Layer_1" xmlns="http://www.w3.org/2000/svg" xmlns:xlink="http://www.w3.org/1999/xlink" x="0px" y="0px"
	 viewBox="0 0 142 48" style="enable-background:new 0 0 142 48;" xml:space="preserve">
<style type="text/css">
	@media (prefers-color-scheme: dark) {
      .st0 { fill: white; }
      .st1 { stroke: white; }
    }
    @media (prefers-color-scheme: light) {
      .st0 { fill: black; }
      .st1 { stroke: black; }
    }
</style>
<g id="Logo-_x2F_-DSI-Internet-Lockup-KO">
	<g id="Lockup" transform="translate(234.000000, 0.500000)">
		<g id="Internet-Access-_x26_-Eq" transform="translate(16.546000, 10.130000)">
			<polygon id="Path_00000162317627419973153060000005989477041482486931_" class="st0" points="-232.2,9.9 -230.5,9.9 -230.5,0.1 
				-232.2,0.1 			"/>
			<path id="Path_00000065074891493951583930000004785288018379420299_" class="st0" d="M-228,9.9h1.7V5.7c0-1.1,0.7-1.8,1.7-1.8
				s1.6,0.7,1.6,1.8v4.2h1.7V5.2c0-1.7-1-2.8-2.6-2.8c-1.1,0-1.8,0.6-2.3,1.3V2.5h-1.8V9.9z"/>
			<path id="Path_00000134965341399980125010000001165321999703919500_" class="st0" d="M-216.9,10c0.6,0,1.1-0.1,1.5-0.4V8.2
				c-0.3,0.2-0.7,0.3-1,0.3c-0.6,0-0.9-0.3-0.9-0.9V3.9h2V2.5h-2v-2h-1.7v2h-1V4h1v3.9C-219,9.4-218.1,10-216.9,10z"/>
			<path id="Shape_00000045576908513636694310000010071284635343681446_" class="st0" d="M-210.4,10c1.4,0,2.3-0.5,3-1.4l-1-0.9
				c-0.6,0.6-1.2,0.9-2,0.9c-1.1,0-1.9-0.7-2.1-1.9h5.4c0-0.2,0-0.3,0-0.5c0-2.1-1.2-4-3.5-4c-2.1,0-3.6,1.7-3.6,3.8l0,0
				C-214.2,8.5-212.6,10-210.4,10z M-212.5,5.7c0.2-1.1,0.9-1.9,1.9-1.9c1.1,0,1.8,0.9,1.9,1.9H-212.5z"/>
			<path id="Path_00000003811835075388488050000015338725710505698733_" class="st0" d="M-205.4,9.9h1.7V7.1c0-2,1-2.9,2.5-2.9h0.1
				V2.3c-1.3-0.1-2.2,0.7-2.6,1.8V2.5h-1.7V9.9z"/>
			<path id="Path_00000088103340660693424020000001376113837348711610_" class="st0" d="M-199.6,9.9h1.7V5.7c0-1.1,0.7-1.8,1.7-1.8
				s1.6,0.7,1.6,1.8v4.2h1.7V5.2c0-1.7-1-2.8-2.6-2.8c-1.1,0-1.8,0.6-2.3,1.3V2.5h-1.7v7.4H-199.6z"/>
			<path id="Shape_00000147930375089108267620000004117953074572828584_" class="st0" d="M-187.5,10c1.4,0,2.3-0.5,3-1.4l-1-0.9
				c-0.6,0.6-1.2,0.9-2,0.9c-1.1,0-1.9-0.7-2.1-1.9h5.4c0-0.2,0-0.3,0-0.5c0-2.1-1.2-4-3.5-4c-2.1,0-3.6,1.7-3.6,3.8l0,0
				C-191.3,8.5-189.7,10-187.5,10z M-189.6,5.7c0.2-1.1,0.9-1.9,1.9-1.9c1.1,0,1.8,0.9,1.9,1.9H-189.6z"/>
			<path id="Path_00000077304505539104784690000014987427063268687508_" class="st0" d="M-180,10c0.6,0,1.1-0.1,1.5-0.4V8.2
				c-0.3,0.2-0.7,0.3-1,0.3c-0.6,0-0.9-0.3-0.9-0.9V3.9h2V2.5h-2v-2h-1.7v2h-0.9V4h0.9v3.9C-182.1,9.4-181.2,10-180,10z"/>
			<polygon id="Path_00000016055164587107450680000016124397035087787409_" class="st0" points="-171.1,9.9 -163.7,9.9 -163.7,8.3 
				-169.4,8.3 -169.4,5.7 -164.4,5.7 -164.4,4.2 -169.4,4.2 -169.4,1.6 -163.8,1.6 -163.8,0.1 -171.1,0.1 			"/>
			<path id="Shape_00000124877827724221622880000012164940287500649095_" class="st0" d="M-156.5,12.1h1.7V2.5h-1.7v1.1
				c-0.5-0.7-1.3-1.3-2.5-1.3c-1.8,0-3.4,1.4-3.4,3.8l0,0c0,2.5,1.7,3.8,3.4,3.8c1.2,0,2-0.6,2.5-1.4V12.1z M-158.6,8.6
				c-1.1,0-2.1-0.9-2.1-2.4l0,0c0-1.5,1-2.4,2.1-2.4c1.1,0,2.1,0.9,2.1,2.4l0,0C-156.4,7.6-157.4,8.6-158.6,8.6z"/>
			<path id="Path_00000042726060185089388700000012748256596901899440_" class="st0" d="M-150.1,10c1.1,0,1.8-0.6,2.3-1.3v1.1h1.7
				V2.5h-1.7v4.2c0,1.1-0.7,1.8-1.7,1.8s-1.6-0.6-1.6-1.8V2.5h-1.7v4.7C-152.7,8.9-151.8,10-150.1,10z"/>
			<path id="Shape_00000173882237177482170430000015005547874001091718_" class="st0" d="M-143.9,1.4h1.8v-1.6h-1.8V1.4z
				 M-143.9,9.9h1.7V2.5h-1.7V9.9z"/>
			<path id="Path_00000143580467319638505450000004514887859415441560_" class="st0" d="M-137.5,10c0.6,0,1.1-0.1,1.5-0.4V8.2
				c-0.3,0.2-0.7,0.3-1,0.3c-0.6,0-0.9-0.3-0.9-0.9V3.9h2V2.5h-2v-2h-1.7v2h-0.9V4h0.9v3.9C-139.6,9.5-138.7,10-137.5,10z"/>
			<path id="Path_00000103246600606959165850000012328976295540798899_" class="st0" d="M-131,8l-2.1-5.5h-1.8l3.1,7.4
				c-0.3,0.6-0.6,0.8-1.1,0.8c-0.3,0-0.7-0.1-1-0.3l-0.6,1.3c0.5,0.3,1.1,0.4,1.8,0.4c1.2,0,1.8-0.6,2.4-2.1l2.9-7.6h-1.8L-131,8z"
				/>
			<polygon id="Path_00000180327596950921815520000002307657779260428945_" class="st0" points="-232.1,26.9 -230.4,26.9 
				-230.4,17.1 -232.1,17.1 			"/>
			<path id="Path_00000124883485486349404320000004180383716935583164_" class="st0" d="M-228,26.9h1.7v-4.2c0-1.1,0.7-1.8,1.7-1.8
				s1.6,0.7,1.6,1.8v4.2h1.7v-4.7c0-1.7-1-2.8-2.6-2.8c-1.1,0-1.8,0.6-2.3,1.3v-1.1h-1.8V26.9z"/>
			<path id="Shape_00000158001040727327137460000000940580280633458587_" class="st0" d="M-219.2,18.3h1.8v-1.6h-1.8V18.3z
				 M-219.2,26.9h1.7v-7.4h-1.7V26.9z"/>
			<path id="Path_00000044178243644860374330000001327590240592602541_" class="st0" d="M-212.8,27c0.6,0,1.1-0.1,1.5-0.4v-1.4
				c-0.3,0.2-0.7,0.3-1.1,0.3c-0.6,0-0.9-0.3-0.9-0.9V21h2v-1.5h-2v-2h-1.7v2h-0.9V21h0.9v3.9C-214.9,26.5-214,27-212.8,27z"/>
			<path id="Shape_00000148633869621944529900000004654814882939682741_" class="st0" d="M-209.5,18.3h1.8v-1.6h-1.8V18.3z
				 M-209.4,26.9h1.7v-7.4h-1.7V26.9z"/>
			<path id="Shape_00000159436792061374659130000007123028609615856301_" class="st0" d="M-203.4,27c1.1,0,1.9-0.5,2.4-1.1v0.9h1.7
				v-4.4c0-1-0.3-1.8-0.8-2.3s-1.3-0.8-2.4-0.8c-1.2,0-2,0.2-2.8,0.6l0.4,1.3c0.7-0.3,1.3-0.5,2.1-0.5c1.2,0,1.8,0.6,1.8,1.6v0.2
				c-0.6-0.2-1.2-0.3-2-0.3c-1.8,0-3.1,0.8-3.1,2.4l0,0C-206,26.2-204.8,27-203.4,27z M-202.9,25.8c-0.8,0-1.4-0.4-1.4-1.1l0,0
				c0-0.8,0.6-1.2,1.7-1.2c0.7,0,1.2,0.1,1.7,0.3v0.5C-200.9,25.1-201.8,25.8-202.9,25.8z"/>
			<path id="Path_00000134952423199526485240000014357945167635070380_" class="st0" d="M-194.9,27c0.6,0,1.1-0.1,1.5-0.4v-1.4
				c-0.3,0.2-0.7,0.3-1.1,0.3c-0.6,0-0.9-0.3-0.9-0.9V21h2v-1.5h-2v-2h-1.6v2h-1V21h1v3.9C-197,26.5-196.1,27-194.9,27z"/>
			<path id="Shape_00000111872887445496547620000017298766628151169708_" class="st0" d="M-191.6,18.3h1.8v-1.6h-1.8V18.3z
				 M-191.5,26.9h1.7v-7.4h-1.7V26.9z"/>
			<polygon id="Path_00000162328638509805843230000016752497213568274353_" class="st0" points="-185.3,26.9 -183.7,26.9 
				-180.7,19.5 -182.5,19.5 -184.5,24.9 -186.5,19.5 -188.3,19.5 			"/>
			<path id="Shape_00000117659647361757069030000002271115093815680435_" class="st0" d="M-176.3,27c1.4,0,2.3-0.5,3-1.4l-1-0.9
				c-0.6,0.6-1.2,0.9-2,0.9c-1.1,0-1.9-0.7-2.1-1.9h5.4c0-0.2,0-0.3,0-0.5c0-2.1-1.2-4-3.5-4c-2.1,0-3.6,1.7-3.6,3.9l0,0
				C-180.1,25.5-178.5,27-176.3,27z M-178.4,22.7c0.2-1.1,0.9-1.9,1.9-1.9c1.1,0,1.8,0.9,1.9,1.9H-178.4z"/>
		</g>
		<line id="Line-2" class="st1" x1="-232.5" y1="46.7" x2="-232.5" y2="0.3"/>
	</g>
</g>
</svg>